<svg xmlns="http://www.w3.org/2000/svg" width="800" height="140">
  <g data-name="Layer 2">
    <g data-name="Layer 1">
      <rect width="111.45" height="111.45" x="12.645" y="10.275" fill="#0094ff" class="cls-1" rx="24.83"/>
      <path d="M173.025 38.855c19.17 0 31.51 12.34 31.51 30.2s-12.34 30.22-31.51 30.22-31.5-12.34-31.5-30.21 12.34-30.21 31.5-30.21zm0 49.37c10.56.05 16.62-7.8 16.62-19.17s-6-19.16-16.57-19.16-16.56 7.8-16.56 19.16 5.96 19.22 16.51 19.22v-.05zM228.965 54.445c7.15 0 10.8 3 12.75 5.2h.81l2.6-4.39h9.9v40.76c0 12.5-8.77 19.32-22.73 19.32-13.64 0-21.35-6.82-23.06-15.34v-1.22h13.32c.65 3.73 3.41 6.82 9.25 6.82s8.93-3.09 8.93-8.12v-4.71h-.81c-2.27 2-5.6 3.58-11 3.58-10.07 0-19.89-6.83-19.89-20.95s9.86-20.95 19.93-20.95zm3.57 31.66c5.2 0 9-3.57 9-10.71s-3.81-10.72-9-10.72-9 3.57-9 10.72 3.81 10.71 9 10.71zM277.105 55.275v4.39h.82c1.54-2.2 4.71-5.2 11.85-5.2 8.28 0 11.94 4.3 13.4 6.25h.81c2-2.35 5.76-6.25 13.88-6.25 9.42 0 16.08 5.85 16.08 14.94v28.87h-14.3v-27.75c0-3.5-2.44-5.53-6-5.53-4.22 0-7.79 2-7.79 8.45v24.83h-14.29v-27.75c0-3.5-2.44-5.53-6-5.53-4.22 0-7.8 2-7.8 8.45v24.83h-14.3v-43h13.64zM341.245 68.815c1.22-8.61 9.5-14.54 21.4-14.54s20.71 5.92 20.71 17.7v26.3h-13.71v-4.53h-.81c-1.47 1.7-4.79 5.19-12.59 5.19-9.66 0-16.16-4.79-16.16-12.83s7-11.93 15.43-12.9l13.64-1.55v-1.13c0-4.39-2.11-6.66-6.82-6.66s-7.14 2.27-7.47 6.17h-13.62v-1.22zm18.68 20.38c5.52 0 9.25-3.57 9.25-8.93v-.49l-10.47 1.22c-2.44.24-4.31 1.62-4.31 4s1.87 4.2 5.53 4.2zM146.535 18.475v12.45h6.85v2.79h-10.74v-15.24h3.89zM158.795 18.475v2.92h-4.15v-2.92h4.15zm-.24 4v11.24h-3.72v-11.22l3.72-.02zM164.315 22.495v1.27h.21a3.69 3.69 0 0 1 3.35-1.49c2.54 0 4.23 1.46 4.23 4.13v7.3h-3.72v-7a1.57 1.57 0 0 0-1.7-1.76c-1.18 0-2.2.62-2.2 2.43v6.29h-3.72v-11.17h3.55zM186.905 33.395v.32h-4l-3.38-4.59-1.53 1.31v3.28h-3.72v-15.24h3.72v7.71h.22l4-3.69h4.63v.32l-4.84 4.17 4.9 6.41zM195.715 33.715v-1.27h-.22a3.63 3.63 0 0 1-3.34 1.48c-2.54 0-4.23-1.46-4.23-4.12v-7.31h3.72v7a1.56 1.56 0 0 0 1.69 1.75c1.19 0 2.21-.61 2.21-2.43v-6.32h3.72v11.22h-3.55zM205.025 22.495v1.34h.21a2.41 2.41 0 0 1 2.48-1.38h1.23v2.82h-1.3c-1.56 0-2.43.74-2.43 2.58v5.88h-3.72v-11.24h3.53zM214.345 18.475v2.92h-4.19v-2.92h4.19zm-.24 4v11.24h-3.72v-11.22l3.72-.02zM222.025 22.275c3.39 0 6.22 1.93 6.22 5.86s-2.83 5.86-6.22 5.86-6.22-1.92-6.22-5.86 2.84-5.86 6.22-5.86zm0 9.06c1.48 0 2.46-1.17 2.46-3.2s-1-3.19-2.46-3.19-2.45 1.16-2.45 3.19.97 3.14 2.45 3.14v.06zM237.645 33.715v-1.27h-.21a3.65 3.65 0 0 1-3.34 1.48c-2.54 0-4.23-1.46-4.23-4.12v-7.31h3.72v7a1.55 1.55 0 0 0 1.69 1.75c1.19 0 2.2-.61 2.2-2.43v-6.32h3.73v11.22h-3.56zM248.255 22.275c3.39 0 5.14 1.51 5.48 3.45v.32h-3.43c-.1-.93-.91-1.31-2-1.31s-1.71.38-1.71.91.44.72 1.08.84l2.28.45c2.31.44 3.88 1.31 3.88 3.34s-1.68 3.68-5.32 3.68-5.42-1.68-5.74-3.68v-.32h3.43c.13 1.13 1.1 1.55 2.24 1.55s1.82-.44 1.82-1-.4-.78-1.23-.93l-2.28-.42c-2.2-.4-3.73-1.33-3.73-3.37s1.84-3.51 5.23-3.51zM110.645 65.645a42.18 42.18 0 1 1-42.21-42.17 42.17 42.17 0 0 1 42.21 42.17zm-59.29-27.75c-10.36 10.38-8.71 28.8 3.65 41.18s30.82 14 41.18 3.65 8.74-28.81-3.64-41.19-30.82-14.01-41.19-3.64zm-11 11c-10.35 10.38-8.71 28.79 3.66 41.17s30.82 14 41.18 3.65 8.74-28.81-3.64-41.19-30.82-14.01-41.19-3.64l-.01.01z"/>
      <circle cx="68.435" cy="65.645" r="14.39" fill="#0094ff" class="cls-1"/>
    </g>
  </g>
  <g stroke="null">
    <circle cx="481.173" cy="66.094" r="9.049" fill="#00d8ff" class="st0"/>
    <path fill="#00d8ff" d="M481.173 86.83a100.543 100.543 0 0 1-32.048-4.398 41.977 41.977 0 0 1-13.196-7.038c-3.52-3.016-5.279-6.158-5.279-9.3 0-6.033 6.535-11.814 17.595-15.71a104.062 104.062 0 0 1 33.054-4.902c12.065 0 23.627 1.634 32.55 4.776 5.28 1.76 9.678 4.148 12.82 6.787 3.393 2.89 5.153 5.907 5.153 9.049 0 6.158-7.29 12.568-19.103 16.464a105.822 105.822 0 0 1-31.546 4.273zm0-36.949c-11.688 0-23.125 1.634-31.671 4.65-7.29 2.514-14.705 7.164-14.705 11.563 0 1.76 1.383 3.896 3.77 6.032 2.891 2.388 6.913 4.65 11.815 6.284a96.145 96.145 0 0 0 30.665 4.148c11.437 0 22.12-1.383 30.163-4.148 11.186-3.644 16.213-8.923 16.213-12.316 0-1.634-1.257-3.77-3.645-5.656a37.327 37.327 0 0 0-11.437-6.032 100.543 100.543 0 0 0-31.168-4.525z" class="st0"/>
    <path fill="#00d8ff" d="M460.687 111.213c-1.885 0-3.519-.378-4.775-1.132-5.153-3.016-6.913-11.562-4.776-22.999a102.806 102.806 0 0 1 12.316-31.043 105.32 105.32 0 0 1 20.486-25.89c4.147-3.644 8.42-6.284 12.19-7.666 4.148-1.508 7.793-1.508 10.432 0 5.404 3.142 7.164 12.568 4.65 24.759a104.062 104.062 0 0 1-11.94 29.409 104.188 104.188 0 0 1-19.73 25.638c-4.274 3.77-8.673 6.536-12.694 7.918-2.514.628-4.4 1.006-6.159 1.006zm6.284-53.163a100.543 100.543 0 0 0-11.814 29.66c-1.382 7.541-1.13 16.213 2.765 18.475 2.891 1.634 9.929.126 18.475-7.415 6.284-5.53 12.82-13.95 18.852-24.507a99.664 99.664 0 0 0 11.563-28.152 37.704 37.704 0 0 0 .754-13.7c-.503-3.267-1.634-5.53-3.268-6.409-1.508-.88-3.896-.754-6.787.251a38.96 38.96 0 0 0-10.934 6.913 105.445 105.445 0 0 0-19.606 24.884z" class="st0"/>
    <path fill="#00d8ff" d="M501.659 111.213c-4.902 0-11.186-3.017-17.595-8.547a102.806 102.806 0 0 1-20.737-26.14c-6.033-10.432-10.432-21.366-12.191-30.667-1.131-5.404-1.257-10.431-.503-14.453.754-4.399 2.514-7.54 5.153-9.049 5.404-3.142 14.453.126 23.753 8.295a110.85 110.85 0 0 1 19.48 25.01 99.287 99.287 0 0 1 12.317 29.912c1.131 5.53 1.257 10.808.503 14.956-.88 4.524-2.765 7.666-5.404 9.3a7.918 7.918 0 0 1-4.776 1.383zm-34.562-36.824c5.781 10.054 13.07 19.228 19.857 25.01 5.907 5.027 13.448 9.174 17.344 6.912 2.89-1.634 5.027-8.546 2.765-19.606a97.527 97.527 0 0 0-11.814-28.655 99.412 99.412 0 0 0-18.6-24.005 38.458 38.458 0 0 0-11.563-7.415c-3.016-1.13-5.655-1.256-7.164-.377-1.508.88-2.513 3.017-3.142 6.033a37.704 37.704 0 0 0 .503 12.82c1.76 8.797 5.907 19.228 11.814 29.283z" class="st0"/>
    <g class="st1">
      <path fill="#00d8ff" d="M582.345 98.016 565.88 72.252h-12.945v25.764h-8.044V33.291h26.016c11.814 0 20.234 7.541 20.234 19.48 0 11.689-7.917 18.099-16.84 18.853l17.469 26.392h-9.426zm.502-45.244c0-7.29-5.278-12.317-12.944-12.317h-16.967v24.759h16.967c7.666 0 12.944-5.153 12.944-12.442z" class="st0"/>
    </g>
    <g class="st1">
      <path fill="#00d8ff" d="M598.934 74.514c0-13.573 9.678-24.507 23.125-24.507 14.202 0 22.497 11.06 22.497 25.136v1.885h-37.955c.628 8.797 6.787 16.212 16.84 16.212 5.28 0 10.81-2.136 14.454-5.907l3.519 4.776a25.387 25.387 0 0 1-18.6 7.164c-13.825-.126-23.88-10.054-23.88-24.759zm23-18.475c-10.055 0-14.956 8.42-15.333 15.585h30.791c-.125-7.038-4.776-15.585-15.458-15.585z" class="st0"/>
    </g>
    <g class="st1">
      <path fill="#00d8ff" d="M682.762 98.016v-5.278a20.234 20.234 0 0 1-15.584 6.535c-7.918 0-16.464-5.279-16.464-15.584 0-10.432 8.42-15.459 16.464-15.459 6.41 0 11.688 2.011 15.584 6.41v-8.42c0-6.285-5.027-9.93-11.813-9.93-5.656 0-10.18 2.012-14.328 6.536l-3.393-5.027c5.027-5.279 11.06-7.792 18.726-7.792 9.929 0 18.098 4.524 18.098 15.835v32.174h-7.29zm0-9.928V79.29c-2.764-3.896-7.792-5.781-12.945-5.781-6.786 0-11.562 4.273-11.562 10.305 0 5.907 4.776 10.18 11.562 10.18 5.153 0 10.055-2.01 12.945-5.906z" class="st0"/>
    </g>
    <g class="st1">
      <path fill="#00d8ff" d="M696.964 74.514c0-13.825 9.426-24.507 23.377-24.507 8.546 0 13.573 3.519 17.218 8.169l-4.902 4.524a13.825 13.825 0 0 0-11.94-6.158c-10.054 0-16.212 7.667-16.212 18.098s6.158 18.098 16.213 18.098c4.901 0 8.797-1.886 11.94-6.159l4.9 4.525a20.234 20.234 0 0 1-17.217 8.169c-13.95-.126-23.377-10.808-23.377-24.759zm52.283 13.7V57.547h-7.792v-6.41h7.792v-12.82h7.29v12.82h9.55v6.41h-9.55v29.157c0 3.52 1.507 6.033 4.775 6.033 2.01 0 4.022-.88 4.901-1.886l2.137 5.405a12.065 12.065 0 0 1-8.798 3.016c-6.912-.126-10.305-4.022-10.305-11.06z" class="st0"/>
    </g>
  </g>
</svg>
